<svg width="31" height="31" viewBox="0 0 31 31" fill="none" xmlns="http://www.w3.org/2000/svg">
<path d="M15.5 0.383606C6.93625 0.383606 0 7.32373 0 15.8836C0 22.7333 4.44075 28.5419 10.5981 30.5892C11.3731 30.7352 11.6573 30.256 11.6573 29.8439C11.6573 29.4758 11.6444 28.5006 11.6379 27.2089C7.32633 28.1441 6.417 25.1294 6.417 25.1294C5.71175 23.3404 4.69262 22.8625 4.69262 22.8625C3.28858 21.9015 4.80113 21.9209 4.80113 21.9209C6.35758 22.0294 7.17521 23.5174 7.17521 23.5174C8.55729 25.8876 10.8035 25.203 11.6896 24.8064C11.8291 23.8041 12.2282 23.1208 12.6713 22.7333C9.22896 22.3458 5.611 21.0128 5.611 15.0737C5.611 13.3816 6.21162 11.9996 7.20621 10.9146C7.03183 10.5232 6.50871 8.94736 7.34183 6.81223C7.34183 6.81223 8.63996 6.39632 11.6043 8.40098C12.8443 8.05611 14.1618 7.88561 15.4793 7.87786C16.7968 7.88561 18.1143 8.05611 19.3543 8.40098C22.2993 6.39632 23.5975 6.81223 23.5975 6.81223C24.4306 8.94736 23.9075 10.5232 23.7525 10.9146C24.7406 11.9996 25.3412 13.3816 25.3412 15.0737C25.3412 21.0283 21.7181 22.3394 18.2693 22.7204C18.8118 23.1854 19.3156 24.1361 19.3156 25.5879C19.3156 27.6623 19.2962 29.3286 19.2962 29.8323C19.2962 30.2392 19.5675 30.7236 20.3618 30.5686C26.5631 28.5355 31 22.723 31 15.8836C31 7.32373 24.0599 0.383606 15.5 0.383606Z" fill="#C9C9C9"/>
</svg>
